<mxfile host="app.diagrams.net" modified="2024-09-18T09:47:04.687Z" agent="Mozilla/5.0 (Windows NT 10.0; Win64; x64; rv:109.0) Gecko/20100101 Firefox/115.0" etag="3Mv8bbKiPBGDwdVFGsjv" version="24.7.1" type="device">
  <diagram name="Page-1" id="4fjpPRk3InbObQBz06lm">
    <mxGraphModel dx="2087" dy="1278" grid="0" gridSize="10" guides="1" tooltips="1" connect="1" arrows="1" fold="1" page="0" pageScale="1" pageWidth="850" pageHeight="1100" math="0" shadow="0">
      <root>
        <mxCell id="0" />
        <mxCell id="1" parent="0" />
        <mxCell id="qdFVjH142uykXFrdu_A6-49" value="" style="rounded=0;whiteSpace=wrap;html=1;" parent="1" vertex="1">
          <mxGeometry x="-154" y="-327" width="1408" height="744" as="geometry" />
        </mxCell>
        <mxCell id="qdFVjH142uykXFrdu_A6-1" value="&lt;div&gt;Brain&lt;/div&gt;&lt;div&gt;(Raspbery pi)&lt;br&gt;&lt;/div&gt;" style="rounded=0;whiteSpace=wrap;html=1;" parent="1" vertex="1">
          <mxGeometry x="158" y="47" width="120" height="60" as="geometry" />
        </mxCell>
        <mxCell id="qdFVjH142uykXFrdu_A6-19" value="D3" style="edgeStyle=orthogonalEdgeStyle;rounded=0;orthogonalLoop=1;jettySize=auto;html=1;exitX=0.25;exitY=1;exitDx=0;exitDy=0;entryX=0.75;entryY=1;entryDx=0;entryDy=0;fillColor=#fff2cc;strokeColor=#d6b656;strokeWidth=2;" parent="1" source="qdFVjH142uykXFrdu_A6-2" target="MuTM-6EljMEQY094edfh-4" edge="1">
          <mxGeometry x="-0.9211" y="-13" relative="1" as="geometry">
            <mxPoint as="offset" />
            <Array as="points">
              <mxPoint x="495" y="177" />
              <mxPoint x="404" y="177" />
            </Array>
          </mxGeometry>
        </mxCell>
        <mxCell id="qdFVjH142uykXFrdu_A6-20" value="D4" style="edgeStyle=orthogonalEdgeStyle;rounded=0;orthogonalLoop=1;jettySize=auto;html=1;exitX=0.75;exitY=1;exitDx=0;exitDy=0;entryX=0.5;entryY=0;entryDx=0;entryDy=0;strokeWidth=2;fillColor=#fff2cc;strokeColor=#d6b656;" parent="1" source="qdFVjH142uykXFrdu_A6-2" target="qdFVjH142uykXFrdu_A6-15" edge="1">
          <mxGeometry x="-0.9211" y="10" relative="1" as="geometry">
            <mxPoint as="offset" />
          </mxGeometry>
        </mxCell>
        <mxCell id="qdFVjH142uykXFrdu_A6-2" value="&lt;div&gt;Controller&lt;/div&gt;&lt;div&gt;(Nucleo)&lt;br&gt;&lt;/div&gt;" style="rounded=0;whiteSpace=wrap;html=1;" parent="1" vertex="1">
          <mxGeometry x="465" y="47" width="120" height="60" as="geometry" />
        </mxCell>
        <mxCell id="qdFVjH142uykXFrdu_A6-9" value="Camera" style="rounded=1;whiteSpace=wrap;html=1;" parent="1" vertex="1">
          <mxGeometry x="-149" y="47" width="120" height="60" as="geometry" />
        </mxCell>
        <mxCell id="qdFVjH142uykXFrdu_A6-11" value="Flexi cable" style="endArrow=classic;startArrow=classic;html=1;rounded=0;exitX=1;exitY=0.5;exitDx=0;exitDy=0;entryX=0;entryY=0.5;entryDx=0;entryDy=0;fillColor=#d5e8d4;strokeColor=#82b366;strokeWidth=2;" parent="1" source="qdFVjH142uykXFrdu_A6-9" target="qdFVjH142uykXFrdu_A6-1" edge="1">
          <mxGeometry width="50" height="50" relative="1" as="geometry">
            <mxPoint x="399" y="350" as="sourcePoint" />
            <mxPoint x="449" y="300" as="targetPoint" />
          </mxGeometry>
        </mxCell>
        <mxCell id="qdFVjH142uykXFrdu_A6-12" value="&lt;div&gt;I2C (PC6, PC5, GND)&lt;/div&gt;&lt;div&gt;&amp;amp; Reset (Available)&lt;br&gt;&lt;/div&gt;" style="endArrow=classic;startArrow=classic;html=1;rounded=0;entryX=0.928;entryY=0;entryDx=0;entryDy=0;fillColor=#fff2cc;strokeColor=#d6b656;strokeWidth=2;exitX=0.916;exitY=0.746;exitDx=0;exitDy=0;exitPerimeter=0;entryPerimeter=0;" parent="1" source="qdFVjH142uykXFrdu_A6-21" target="qdFVjH142uykXFrdu_A6-2" edge="1">
          <mxGeometry x="0.6639" y="8" width="50" height="50" relative="1" as="geometry">
            <mxPoint x="475.96000000000004" y="-92" as="sourcePoint" />
            <mxPoint x="572" y="89" as="targetPoint" />
            <Array as="points">
              <mxPoint x="577" y="-69" />
            </Array>
            <mxPoint as="offset" />
          </mxGeometry>
        </mxCell>
        <mxCell id="qdFVjH142uykXFrdu_A6-14" value="Motor" style="shape=parallelogram;perimeter=parallelogramPerimeter;whiteSpace=wrap;html=1;fixedSize=1;" parent="1" vertex="1">
          <mxGeometry x="294" y="245" width="120" height="60" as="geometry" />
        </mxCell>
        <mxCell id="qdFVjH142uykXFrdu_A6-15" value="Servo" style="shape=parallelogram;perimeter=parallelogramPerimeter;whiteSpace=wrap;html=1;fixedSize=1;" parent="1" vertex="1">
          <mxGeometry x="636" y="245" width="120" height="60" as="geometry" />
        </mxCell>
        <mxCell id="qdFVjH142uykXFrdu_A6-29" value="&lt;div&gt;IBat&lt;br&gt;&lt;/div&gt;" style="edgeStyle=orthogonalEdgeStyle;rounded=0;orthogonalLoop=1;jettySize=auto;html=1;exitX=0.629;exitY=0.992;exitDx=0;exitDy=0;entryX=0.25;entryY=0;entryDx=0;entryDy=0;exitPerimeter=0;fillColor=#fff2cc;strokeColor=#d6b656;strokeWidth=2;" parent="1" source="qdFVjH142uykXFrdu_A6-21" target="qdFVjH142uykXFrdu_A6-2" edge="1">
          <mxGeometry x="-0.8966" y="11" relative="1" as="geometry">
            <Array as="points">
              <mxPoint x="387" />
              <mxPoint x="495" />
            </Array>
            <mxPoint as="offset" />
          </mxGeometry>
        </mxCell>
        <mxCell id="qdFVjH142uykXFrdu_A6-30" value="UBat " style="edgeStyle=orthogonalEdgeStyle;rounded=0;orthogonalLoop=1;jettySize=auto;html=1;entryX=0.5;entryY=0;entryDx=0;entryDy=0;exitX=0.841;exitY=0.869;exitDx=0;exitDy=0;exitPerimeter=0;fillColor=#fff2cc;strokeColor=#d6b656;strokeWidth=2;" parent="1" source="qdFVjH142uykXFrdu_A6-21" target="qdFVjH142uykXFrdu_A6-2" edge="1">
          <mxGeometry x="-0.9042" y="15" relative="1" as="geometry">
            <Array as="points">
              <mxPoint x="412" y="-24" />
              <mxPoint x="525" y="-24" />
            </Array>
            <mxPoint as="offset" />
            <mxPoint x="368" y="-46" as="sourcePoint" />
          </mxGeometry>
        </mxCell>
        <mxCell id="qdFVjH142uykXFrdu_A6-45" value="Gen Supply (+5V)" style="edgeStyle=orthogonalEdgeStyle;rounded=0;jumpSize=21;orthogonalLoop=1;jettySize=auto;html=1;exitX=0.983;exitY=0.588;exitDx=0;exitDy=0;strokeColor=#ff0000;strokeWidth=4;exitPerimeter=0;entryX=0.628;entryY=1.003;entryDx=0;entryDy=0;entryPerimeter=0;" parent="1" source="qdFVjH142uykXFrdu_A6-21" target="qdFVjH142uykXFrdu_A6-15" edge="1">
          <mxGeometry x="-0.842" y="10" relative="1" as="geometry">
            <Array as="points">
              <mxPoint x="429" y="-88" />
              <mxPoint x="825" y="-88" />
              <mxPoint x="825" y="373" />
              <mxPoint x="711" y="373" />
            </Array>
            <mxPoint as="offset" />
            <mxPoint x="711" y="311" as="targetPoint" />
          </mxGeometry>
        </mxCell>
        <mxCell id="qdFVjH142uykXFrdu_A6-21" value="Power Board&lt;br&gt;&amp;amp; IMU" style="ellipse;whiteSpace=wrap;html=1;" parent="1" vertex="1">
          <mxGeometry x="315" y="-127" width="120" height="80" as="geometry" />
        </mxCell>
        <mxCell id="qdFVjH142uykXFrdu_A6-27" value="&lt;div&gt;EC5&lt;/div&gt;&lt;div&gt;or&lt;/div&gt;&lt;div&gt;XT90&lt;br&gt;&lt;/div&gt;" style="edgeStyle=orthogonalEdgeStyle;rounded=0;orthogonalLoop=1;jettySize=auto;html=1;exitX=1;exitY=1;exitDx=0;exitDy=0;entryX=0;entryY=0;entryDx=0;entryDy=0;" parent="1" source="qdFVjH142uykXFrdu_A6-25" target="qdFVjH142uykXFrdu_A6-21" edge="1">
          <mxGeometry relative="1" as="geometry" />
        </mxCell>
        <mxCell id="qdFVjH142uykXFrdu_A6-25" value="&lt;div&gt;Battery 1&lt;/div&gt;&lt;div&gt;7.4V&lt;br&gt;&lt;/div&gt;" style="ellipse;whiteSpace=wrap;html=1;" parent="1" vertex="1">
          <mxGeometry x="158" y="-274" width="120" height="80" as="geometry" />
        </mxCell>
        <mxCell id="qdFVjH142uykXFrdu_A6-28" value="&lt;div&gt;EC5 &lt;br&gt;&lt;/div&gt;&lt;div&gt;or&lt;/div&gt;&lt;div&gt;XT90&lt;/div&gt;" style="edgeStyle=orthogonalEdgeStyle;rounded=0;orthogonalLoop=1;jettySize=auto;html=1;exitX=0;exitY=1;exitDx=0;exitDy=0;" parent="1" source="qdFVjH142uykXFrdu_A6-26" target="qdFVjH142uykXFrdu_A6-21" edge="1">
          <mxGeometry x="0.1688" relative="1" as="geometry">
            <mxPoint as="offset" />
          </mxGeometry>
        </mxCell>
        <mxCell id="qdFVjH142uykXFrdu_A6-26" value="&lt;div&gt;Battery 2&lt;/div&gt;&lt;div&gt;7.4V&lt;br&gt;&lt;/div&gt;" style="ellipse;whiteSpace=wrap;html=1;" parent="1" vertex="1">
          <mxGeometry x="437" y="-274" width="120" height="80" as="geometry" />
        </mxCell>
        <mxCell id="qdFVjH142uykXFrdu_A6-33" value="GND" style="endArrow=classic;html=1;rounded=0;strokeColor=#000000;strokeWidth=4;jumpSize=21;exitX=1;exitY=0;exitDx=0;exitDy=0;entryX=0.5;entryY=1;entryDx=0;entryDy=0;" parent="1" source="qdFVjH142uykXFrdu_A6-21" target="qdFVjH142uykXFrdu_A6-14" edge="1">
          <mxGeometry x="-0.9806" y="12" width="50" height="50" relative="1" as="geometry">
            <mxPoint x="399" y="110" as="sourcePoint" />
            <mxPoint x="449" y="60" as="targetPoint" />
            <Array as="points">
              <mxPoint x="864" y="-119" />
              <mxPoint x="864" y="395" />
              <mxPoint x="354" y="395" />
            </Array>
            <mxPoint as="offset" />
          </mxGeometry>
        </mxCell>
        <mxCell id="qdFVjH142uykXFrdu_A6-35" value="" style="endArrow=classic;html=1;rounded=0;strokeColor=#000000;strokeWidth=4;jumpSize=21;entryX=0.5;entryY=1;entryDx=0;entryDy=0;" parent="1" target="qdFVjH142uykXFrdu_A6-15" edge="1">
          <mxGeometry width="50" height="50" relative="1" as="geometry">
            <mxPoint x="694" y="394" as="sourcePoint" />
            <mxPoint x="449" y="60" as="targetPoint" />
            <Array as="points">
              <mxPoint x="695" y="349" />
            </Array>
          </mxGeometry>
        </mxCell>
        <mxCell id="qdFVjH142uykXFrdu_A6-36" value="" style="endArrow=classic;html=1;rounded=0;strokeColor=#000000;strokeWidth=4;jumpSize=21;entryX=1;entryY=0.25;entryDx=0;entryDy=0;" parent="1" target="qdFVjH142uykXFrdu_A6-2" edge="1">
          <mxGeometry width="50" height="50" relative="1" as="geometry">
            <mxPoint x="866" y="58" as="sourcePoint" />
            <mxPoint x="449" y="60" as="targetPoint" />
          </mxGeometry>
        </mxCell>
        <mxCell id="qdFVjH142uykXFrdu_A6-41" value="" style="endArrow=classic;html=1;rounded=0;strokeColor=#000000;strokeWidth=4;jumpSize=21;entryX=0;entryY=0;entryDx=0;entryDy=0;" parent="1" target="qdFVjH142uykXFrdu_A6-1" edge="1">
          <mxGeometry width="50" height="50" relative="1" as="geometry">
            <mxPoint x="463" y="-117" as="sourcePoint" />
            <mxPoint x="595" y="87" as="targetPoint" />
            <Array as="points">
              <mxPoint x="461" y="-158" />
              <mxPoint x="156" y="-156" />
            </Array>
          </mxGeometry>
        </mxCell>
        <mxCell id="qdFVjH142uykXFrdu_A6-42" value="gnd signal for control" style="text;html=1;strokeColor=none;fillColor=none;align=center;verticalAlign=middle;whiteSpace=wrap;rounded=0;" parent="1" vertex="1">
          <mxGeometry x="280" y="305" width="68" height="30" as="geometry" />
        </mxCell>
        <mxCell id="qdFVjH142uykXFrdu_A6-46" value="A1" style="text;html=1;strokeColor=none;fillColor=none;align=center;verticalAlign=middle;whiteSpace=wrap;rounded=0;" parent="1" vertex="1">
          <mxGeometry x="512" y="20" width="60" height="30" as="geometry" />
        </mxCell>
        <mxCell id="qdFVjH142uykXFrdu_A6-47" value="A2" style="text;html=1;strokeColor=none;fillColor=none;align=center;verticalAlign=middle;whiteSpace=wrap;rounded=0;" parent="1" vertex="1">
          <mxGeometry x="448" y="20" width="60" height="30" as="geometry" />
        </mxCell>
        <mxCell id="qdFVjH142uykXFrdu_A6-48" value="" style="endArrow=classic;html=1;rounded=0;strokeColor=#ff0000;strokeWidth=4;jumpSize=21;entryX=1;entryY=0.75;entryDx=0;entryDy=0;" parent="1" target="qdFVjH142uykXFrdu_A6-2" edge="1">
          <mxGeometry width="50" height="50" relative="1" as="geometry">
            <mxPoint x="824" y="89" as="sourcePoint" />
            <mxPoint x="449" y="60" as="targetPoint" />
          </mxGeometry>
        </mxCell>
        <mxCell id="MuTM-6EljMEQY094edfh-4" value="signal" style="text;html=1;strokeColor=none;fillColor=none;align=center;verticalAlign=middle;whiteSpace=wrap;rounded=0;" parent="1" vertex="1">
          <mxGeometry x="353" y="215" width="68" height="30" as="geometry" />
        </mxCell>
        <mxCell id="MuTM-6EljMEQY094edfh-5" value="" style="verticalLabelPosition=bottom;html=1;verticalAlign=top;align=center;strokeColor=none;fillColor=#00BEF2;shape=mxgraph.azure.automation;pointerEvents=1;" parent="1" vertex="1">
          <mxGeometry x="66" y="245" width="83" height="72" as="geometry" />
        </mxCell>
        <mxCell id="MuTM-6EljMEQY094edfh-7" value="" style="shape=flexArrow;endArrow=classic;startArrow=classic;html=1;rounded=0;exitX=1;exitY=0.41;exitDx=0;exitDy=0;exitPerimeter=0;entryX=0;entryY=0.5;entryDx=0;entryDy=0;strokeWidth=2;fillColor=#dae8fc;strokeColor=#6c8ebf;" parent="1" source="MuTM-6EljMEQY094edfh-5" target="qdFVjH142uykXFrdu_A6-14" edge="1">
          <mxGeometry width="100" height="100" relative="1" as="geometry">
            <mxPoint x="308" y="89" as="sourcePoint" />
            <mxPoint x="408" y="-11" as="targetPoint" />
          </mxGeometry>
        </mxCell>
        <mxCell id="nH1GXkgWtT8kR_Z3w7Ir-2" value="" style="endArrow=classic;html=1;rounded=0;strokeColor=#ff0000;strokeWidth=4;jumpSize=21;entryX=0.75;entryY=0;entryDx=0;entryDy=0;" parent="1" target="qdFVjH142uykXFrdu_A6-1" edge="1">
          <mxGeometry width="50" height="50" relative="1" as="geometry">
            <mxPoint x="586" y="-86" as="sourcePoint" />
            <mxPoint x="194.5" y="-135" as="targetPoint" />
            <Array as="points">
              <mxPoint x="584" y="-140" />
              <mxPoint x="248" y="-138" />
            </Array>
          </mxGeometry>
        </mxCell>
        <mxCell id="nH1GXkgWtT8kR_Z3w7Ir-5" value="&lt;div align=&quot;left&quot;&gt;&lt;font style=&quot;font-size: 17px;&quot;&gt;&lt;b&gt;Legend&lt;/b&gt;&lt;br&gt;&lt;/font&gt;&lt;/div&gt;&lt;div align=&quot;left&quot;&gt;&lt;br&gt;&lt;/div&gt;&lt;div align=&quot;left&quot;&gt;&lt;br&gt;&lt;/div&gt;&lt;div align=&quot;left&quot;&gt;Communication custom cable&lt;/div&gt;&lt;div align=&quot;left&quot;&gt;&lt;br&gt;&lt;/div&gt;&lt;div&gt;&lt;br&gt;&lt;/div&gt;&lt;div&gt;Communication standard cable&lt;/div&gt;&lt;div&gt;&lt;br&gt;&lt;/div&gt;&lt;div&gt;&lt;br&gt;&lt;/div&gt;&lt;div&gt;Physical connection&lt;/div&gt;&lt;div&gt;&lt;br&gt;&lt;/div&gt;&lt;div&gt;&lt;br&gt;&lt;/div&gt;&lt;div&gt;GND&lt;/div&gt;&lt;div&gt;&lt;br&gt;&lt;/div&gt;&lt;div&gt;&lt;br&gt;&lt;/div&gt;&lt;div&gt;+5V&lt;/div&gt;&lt;div&gt;&lt;br&gt;&lt;/div&gt;&lt;div&gt;Motor Alimentation&lt;br&gt;&lt;/div&gt;" style="text;html=1;strokeColor=none;fillColor=none;align=left;verticalAlign=middle;whiteSpace=wrap;rounded=0;" parent="1" vertex="1">
          <mxGeometry x="916" y="33" width="184" height="361" as="geometry" />
        </mxCell>
        <mxCell id="nH1GXkgWtT8kR_Z3w7Ir-7" value="" style="endArrow=classic;startArrow=classic;html=1;rounded=0;entryX=0;entryY=0.5;entryDx=0;entryDy=0;fillColor=#d5e8d4;strokeColor=#82b366;strokeWidth=2;" parent="1" edge="1">
          <mxGeometry width="50" height="50" relative="1" as="geometry">
            <mxPoint x="1107" y="182" as="sourcePoint" />
            <mxPoint x="1191" y="182" as="targetPoint" />
          </mxGeometry>
        </mxCell>
        <mxCell id="nH1GXkgWtT8kR_Z3w7Ir-8" value="" style="endArrow=classic;startArrow=classic;html=1;rounded=0;fillColor=#fff2cc;strokeColor=#d6b656;strokeWidth=2;" parent="1" edge="1">
          <mxGeometry width="50" height="50" relative="1" as="geometry">
            <mxPoint x="1109" y="135" as="sourcePoint" />
            <mxPoint x="1185" y="135" as="targetPoint" />
          </mxGeometry>
        </mxCell>
        <mxCell id="nH1GXkgWtT8kR_Z3w7Ir-9" value="" style="shape=flexArrow;endArrow=classic;startArrow=classic;html=1;rounded=0;strokeWidth=2;fillColor=#dae8fc;strokeColor=#6c8ebf;" parent="1" edge="1">
          <mxGeometry width="100" height="100" relative="1" as="geometry">
            <mxPoint x="1102" y="219" as="sourcePoint" />
            <mxPoint x="1195" y="219" as="targetPoint" />
          </mxGeometry>
        </mxCell>
        <mxCell id="nH1GXkgWtT8kR_Z3w7Ir-10" value="" style="endArrow=classic;startArrow=classic;html=1;rounded=0;entryX=0;entryY=0.5;entryDx=0;entryDy=0;fillColor=#d5e8d4;strokeColor=#000000;strokeWidth=3;" parent="1" edge="1">
          <mxGeometry width="50" height="50" relative="1" as="geometry">
            <mxPoint x="1106" y="269" as="sourcePoint" />
            <mxPoint x="1190" y="269" as="targetPoint" />
          </mxGeometry>
        </mxCell>
        <mxCell id="nH1GXkgWtT8kR_Z3w7Ir-11" value="" style="endArrow=classic;startArrow=classic;html=1;rounded=0;entryX=0;entryY=0.5;entryDx=0;entryDy=0;fillColor=#d5e8d4;strokeColor=#FF0000;strokeWidth=3;" parent="1" edge="1">
          <mxGeometry width="50" height="50" relative="1" as="geometry">
            <mxPoint x="1106" y="313" as="sourcePoint" />
            <mxPoint x="1190" y="313" as="targetPoint" />
          </mxGeometry>
        </mxCell>
        <mxCell id="nH1GXkgWtT8kR_Z3w7Ir-14" value="Motor alim" style="shape=flexArrow;endArrow=classic;startArrow=classic;html=1;rounded=0;entryX=0;entryY=1;entryDx=0;entryDy=0;fillColor=#330000;strokeColor=#ff0000;gradientColor=none;strokeWidth=3;" parent="1" target="qdFVjH142uykXFrdu_A6-21" edge="1">
          <mxGeometry x="0.6606" y="-1" width="100" height="100" relative="1" as="geometry">
            <mxPoint x="333" y="242" as="sourcePoint" />
            <mxPoint x="514" y="-12" as="targetPoint" />
            <mxPoint as="offset" />
          </mxGeometry>
        </mxCell>
        <mxCell id="nH1GXkgWtT8kR_Z3w7Ir-15" value="" style="shape=flexArrow;endArrow=classic;startArrow=classic;html=1;rounded=0;strokeWidth=3;fillColor=#330000;strokeColor=#ff0000;" parent="1" edge="1">
          <mxGeometry width="100" height="100" relative="1" as="geometry">
            <mxPoint x="1102" y="345" as="sourcePoint" />
            <mxPoint x="1195" y="345" as="targetPoint" />
          </mxGeometry>
        </mxCell>
        <mxCell id="qdFVjH142uykXFrdu_A6-3" value="USB0 - miniUSB" style="endArrow=classic;startArrow=classic;html=1;rounded=0;entryX=0;entryY=0.5;entryDx=0;entryDy=0;exitX=1;exitY=0.5;exitDx=0;exitDy=0;fillColor=#d5e8d4;strokeColor=#82b366;strokeWidth=2;" parent="1" source="qdFVjH142uykXFrdu_A6-1" target="qdFVjH142uykXFrdu_A6-2" edge="1">
          <mxGeometry width="50" height="50" relative="1" as="geometry">
            <mxPoint x="399" y="350" as="sourcePoint" />
            <mxPoint x="449" y="300" as="targetPoint" />
          </mxGeometry>
        </mxCell>
        <mxCell id="3OQI5CSWuaZ1qRTkGwBJ-1" value="&lt;div&gt;Buzzer/Led&lt;/div&gt;&lt;div&gt;For Bat Warning&lt;br&gt;&lt;/div&gt;" style="ellipse;whiteSpace=wrap;html=1;aspect=fixed;" vertex="1" parent="1">
          <mxGeometry x="21" y="-130" width="80" height="80" as="geometry" />
        </mxCell>
        <mxCell id="3OQI5CSWuaZ1qRTkGwBJ-2" value="" style="endArrow=classic;html=1;rounded=0;exitX=0.017;exitY=0.738;exitDx=0;exitDy=0;exitPerimeter=0;entryX=0.925;entryY=0.763;entryDx=0;entryDy=0;entryPerimeter=0;" edge="1" parent="1" source="qdFVjH142uykXFrdu_A6-21" target="3OQI5CSWuaZ1qRTkGwBJ-1">
          <mxGeometry width="50" height="50" relative="1" as="geometry">
            <mxPoint x="525" y="67" as="sourcePoint" />
            <mxPoint x="575" y="17" as="targetPoint" />
          </mxGeometry>
        </mxCell>
        <mxCell id="3OQI5CSWuaZ1qRTkGwBJ-3" value="GND " style="edgeLabel;html=1;align=center;verticalAlign=middle;resizable=0;points=[];" vertex="1" connectable="0" parent="3OQI5CSWuaZ1qRTkGwBJ-2">
          <mxGeometry x="0.1444" y="-1" relative="1" as="geometry">
            <mxPoint as="offset" />
          </mxGeometry>
        </mxCell>
        <mxCell id="3OQI5CSWuaZ1qRTkGwBJ-4" value="" style="endArrow=classic;html=1;rounded=0;exitX=0.017;exitY=0.738;exitDx=0;exitDy=0;exitPerimeter=0;entryX=0.925;entryY=0.763;entryDx=0;entryDy=0;entryPerimeter=0;fillColor=#ffe6cc;strokeColor=#d79b00;" edge="1" parent="1">
          <mxGeometry width="50" height="50" relative="1" as="geometry">
            <mxPoint x="319" y="-103" as="sourcePoint" />
            <mxPoint x="97" y="-104" as="targetPoint" />
          </mxGeometry>
        </mxCell>
        <mxCell id="3OQI5CSWuaZ1qRTkGwBJ-5" value="PB2" style="edgeLabel;html=1;align=center;verticalAlign=middle;resizable=0;points=[];" vertex="1" connectable="0" parent="3OQI5CSWuaZ1qRTkGwBJ-4">
          <mxGeometry x="0.1444" y="-1" relative="1" as="geometry">
            <mxPoint as="offset" />
          </mxGeometry>
        </mxCell>
      </root>
    </mxGraphModel>
  </diagram>
</mxfile>
